<?xml version="1.0" encoding="UTF-8"?>
<svg id="a" data-name="Layer 1" xmlns="http://www.w3.org/2000/svg" viewBox="0 0 250 197.6">
  <polygon points="241.2 14.4 69.4 14.4 10.2 182.5 182.1 182.5 241.2 14.4" fill="#fff"/>
  <path d="M20.3,197.6c-15.7,0-24-12.7-18.6-28.4L50.5,28.5C56,12.7,73.1,0,88.8,0h140.9c15.7,0,24,12.7,18.6,28.5l-48.8,140.8c-5.5,15.7-22.6,28.4-38.3,28.4H20.3M72.2,28.5L23.4,169.2c-1.2,3.6.8,6.7,4.4,6.7h140.9c3.6,0,7.8-3.1,9.1-6.7L226.6,28.5c1.3-3.6-.8-6.7-4.4-6.7H81.3c-3.6,0-7.8,3.1-9.1,6.7" fill="#104c8b"/>
  <path d="M151.7,100.1c12.1-3.8,22.8-12.4,27.3-25.1,1.1-3.2,2.2-11-2-16-2.8-3.3-7-7.2-25-7.7-3.7-.1-15.2.3-15.2.3l-.2.6c2.4,2.4,4.4,6.5,4.4,11.2,1.8,0,4.4-.2,7,0,7.1.4,9.8,1.8,12.2,4.3,2.4,2.6,2.6,7,1.2,11.1-1.9,5.5-6.5,11.2-15.6,14.5-7.3,2.6-15.3,3.2-15.3,3.2l-.7,2s3.9,2.2,6.4,8.4c2.2,5.3,13.6,39.5,13.6,39.5h19.2s-16.1-43.3-17.3-46.3" fill="#f16f24"/>
  <path d="M78.7,133.2h-10.8l24.2-69.8c.2,0,4.8,0,7.8,0,12,0,16.5,6.3,13.8,14.8-1.7,5.2-5,10.1-11.5,13.8-5.3,3-11.7,3.9-11.7,3.9l-.8,2.2s7.9,1.2,11.4,3.2c6.6,3.7,7,9.4,4.5,16.8-4,11.6-16.5,15.2-26.9,15.2M111.1,95.3c8.9-4.4,15.9-10.8,19.2-20.4,3.6-10.2,2.2-23.8-23.3-23.8s-26.2.5-26.2.5l-32.9,94.8h21.7c27.6,0,45.8-10.2,52.5-29.4,3.9-11.4-.6-19-11.1-21.6" fill="#104c8b"/>
</svg>